HIERARCHY
ROOT Hips
{
	OFFSET 0.000000 0.000000 0.000000
	CHANNELS 6 Xposition Yposition Zposition Zrotation Yrotation Xrotation 
	JOINT LHipJoint
	{
		OFFSET 0.000000 0.000000 0.000000
		CHANNELS 3 Zrotation Yrotation Xrotation
		JOINT LeftUpLeg
		{
			OFFSET 1.363060 -1.794630 0.839290
			CHANNELS 3 Zrotation Yrotation Xrotation
			JOINT LeftLeg
			{
				OFFSET 2.448110 -6.726130 0.000000
				CHANNELS 3 Zrotation Yrotation Xrotation
				JOINT LeftFoot
				{
					OFFSET 2.562200 -7.039590 0.000000
					CHANNELS 3 Zrotation Yrotation Xrotation
					JOINT LeftToeBase
					{
						OFFSET 0.157640 -0.433110 2.322550
						CHANNELS 3 Zrotation Yrotation Xrotation
						End Site
						{
							OFFSET 0.000000 0.000000 0.000000
						}
					}
				}
			}
		}
	}
	JOINT RHipJoint
	{
		OFFSET 0.000000 0.000000 0.000000
		CHANNELS 3 Zrotation Yrotation Xrotation
		JOINT RightUpLeg
		{
			OFFSET -1.305520 -1.794630 0.839290
			CHANNELS 3 Zrotation Yrotation Xrotation
			JOINT RightLeg
			{
				OFFSET -2.542530 -6.985550 0.000000
				CHANNELS 3 Zrotation Yrotation Xrotation
				JOINT RightFoot
				{
					OFFSET -2.568260 -7.056230 0.000000
					CHANNELS 3 Zrotation Yrotation Xrotation
					JOINT RightToeBase
					{
						OFFSET -0.164730 -0.452590 2.363150
						CHANNELS 3 Zrotation Yrotation Xrotation
						End Site
						{
							OFFSET 0.000000 0.000000 0.000000
						}
					}
				}
			}
		}
	}
}
MOTION
Frames: 14
Frame Time: 0.008333
-12.151259 17.772486 -1.111763 35.470931 89.038263 63.251343 -12.157947 3.648046 1.950180 -4.648614 6.317900 -13.407659 -1.111042 0.172448 11.648392 0.785994 5.081968 17.623448 1.985100 0.000000 -57.699700 9.707295 -0.808454 1.640759 7.141340 -2.290066 -45.677535 0.601951 -3.311148 48.744253 -0.789062 -2.548327 -1.591637 -0.548501 0.000000 -55.533900
-11.892798 17.829686 -1.081939 44.140913 89.088424 72.171584 -12.348126 3.686656 1.862265 -4.305571 6.773525 -13.117717 -0.997859 0.219401 11.777757 0.888928 5.550890 19.307912 2.255700 0.000000 -55.382200 9.423106 -0.915840 1.862501 7.666717 -2.043070 -46.154482 1.018400 -3.089777 44.698872 -0.604376 -1.626905 -1.308312 -0.489800 0.000000 -57.148400
-11.634222 17.873541 -1.049144 60.339491 89.076211 88.622333 -12.526321 3.671535 1.757954 -4.007039 7.106852 -12.824381 -0.870489 0.247025 12.182593 0.998391 6.243509 20.516334 2.617600 0.000000 -53.113000 9.137656 -1.078268 2.140252 8.022517 -1.683500 -46.516810 1.461851 -2.842094 40.485316 -0.407906 -0.685122 -0.999897 -0.417000 -0.000001 -58.682700
-11.376045 17.903275 -1.011967 82.109128 88.983526 110.632571 -12.605615 3.617901 1.625210 -3.756921 7.326512 -12.536034 -0.739659 0.260648 12.922913 1.101378 7.062551 21.243481 3.028100 0.000001 -50.815000 8.933402 -1.256569 2.476892 8.180831 -1.249284 -46.751193 1.911598 -2.558533 36.128822 -0.211796 0.216234 -0.624829 -0.335300 0.000000 -60.115600
-11.118297 17.918731 -0.970200 94.148610 88.800909 122.877149 -12.606995 3.597409 1.480397 -3.566435 7.432019 -12.201539 -0.620005 0.288284 13.912428 1.215775 7.994113 21.598049 3.469300 0.000000 -48.989400 8.809286 -1.342115 2.824843 8.139875 -0.732341 -46.787290 2.318651 -2.195617 31.718459 -0.019059 1.039278 -0.151864 -0.250200 0.000000 -61.078600
-10.861168 17.919453 -0.923332 98.300849 88.514493 127.172751 -12.598570 3.605000 1.324830 -3.467597 7.466652 -11.836637 -0.514897 0.334868 15.197004 1.331854 8.908614 21.628972 3.872000 -0.000000 -47.588200 8.717600 -1.348391 3.155950 7.874621 -0.211744 -46.639121 2.658363 -1.770326 27.397684 0.160219 1.739470 0.431178 -0.168500 -0.000000 -61.509400
-10.604763 17.905265 -0.871437 99.369243 88.122589 128.291557 -12.579375 3.632127 1.157706 -3.456778 7.442725 -11.422413 -0.423327 0.399262 16.777335 1.439541 9.721807 21.419304 4.195499 0.000000 -46.621001 8.664420 -1.296397 3.444858 7.410049 0.227836 -46.334275 2.914479 -1.325602 23.355924 0.313981 2.287794 1.087802 -0.095000 -0.000000 -61.362000
-10.348983 17.876383 -0.815086 99.590251 87.634528 128.449734 -12.541899 3.679432 0.984449 -3.518814 7.371107 -10.950554 -0.343729 0.482078 18.633731 1.534051 10.385087 21.063131 4.422600 -0.000000 -46.128400 8.657989 -1.198515 3.668170 6.803072 0.530998 -45.922386 3.078054 -0.909198 19.818844 0.433463 2.679409 1.734287 -0.033700 0.000000 -60.660100
-10.093525 17.833201 -0.755557 99.904824 87.082558 128.586838 -12.489066 3.744548 0.810788 -3.614377 7.285893 -10.447356 -0.273432 0.583531 20.757042 1.611279 10.850333 20.627342 4.537400 0.000000 -46.010200 8.691465 -1.074511 3.819610 6.132953 0.702778 -45.464295 3.152498 -0.561862 16.986961 0.509271 2.900122 2.256241 0.004900 -0.000000 -59.477700
-9.838085 17.776458 -0.694278 100.455238 86.501736 128.858609 -12.428253 3.824349 0.645816 -3.708495 7.197980 -9.937207 -0.206741 0.701859 23.111056 1.672519 11.121753 20.187241 4.554800 -0.000000 -46.271500 8.750129 -0.942829 3.905746 5.461796 0.786005 -45.020644 3.148659 -0.309809 15.010649 0.533061 2.931720 2.524214 0.007800 0.000000 -57.906401
-9.582227 17.707005 -0.633043 101.423568 85.944940 129.475104 -12.372309 3.908564 0.492802 -3.740667 7.144348 -9.474006 -0.138737 0.833841 25.683988 1.717007 11.186852 19.763162 4.475600 0.000000 -46.665700 8.811900 -0.827160 3.953808 4.844196 0.884154 -44.635465 3.078339 -0.159570 13.950737 0.490725 2.712415 2.431372 -0.045401 0.000000 -56.049001
-9.325686 17.625611 -0.572817 102.645712 85.435128 130.293881 -12.326609 3.993624 0.360832 -3.697092 7.106904 -9.067904 -0.063651 0.974634 28.418437 1.751439 11.110597 19.402135 4.340700 0.000000 -47.225700 8.864031 -0.734393 3.979029 4.297421 1.053490 -44.349834 2.951748 -0.112344 13.859793 0.376688 2.235820 1.875400 -0.152900 0.000000 -53.968300
-9.068162 17.532893 -0.514531 104.125969 84.995956 131.338592 -12.297019 4.074039 0.254356 -3.556736 7.086922 -8.736725 0.021723 1.119470 31.280824 1.780094 10.939703 19.103411 4.173799 0.000000 -47.814500 8.895159 -0.669254 3.996299 3.841705 1.343442 -44.192125 2.778212 -0.162828 14.748421 0.186561 1.508886 0.792979 -0.296200 -0.000000 -51.705900
-8.809722 17.429413 -0.458259 105.728705 84.620763 132.472058 -12.281658 4.151208 0.178269 -3.338825 7.056644 -8.452514 0.118780 1.264759 34.215534 1.809855 10.755415 18.867889 4.012500 -0.000000 -48.361000 8.905653 -0.621435 3.997757 3.483065 1.726860 -44.173320 2.568074 -0.307961 16.626610 -0.071256 0.613122 -0.849166 -0.426600 0.000001 -49.272600
